<?xml version="1.0" encoding="iso-8859-1"?>
<!-- Generator: Adobe Illustrator 19.0.0, SVG Export Plug-In . SVG Version: 6.00 Build 0)  -->
<svg version="1.1" id="Capa_1" xmlns="http://www.w3.org/2000/svg" xmlns:xlink="http://www.w3.org/1999/xlink" x="0px" y="0px"
	 viewBox="0 0 512 512" style="enable-background:new 0 0 512 512;" xml:space="preserve">
<circle style="fill:#FF9451;" cx="256" cy="256" r="256"/>
<path style="fill:#F7674F;" d="M512,256c0-8.642-0.435-17.182-1.271-25.604L422.333,142L89.667,370l140.729,140.729
	C238.818,511.565,247.358,512,256,512C397.385,512,512,397.385,512,256z"/>
<rect x="89.67" y="142" style="fill:#FFFFFF;" width="332.67" height="228"/>
<rect x="256" y="142" style="fill:#E0E0E0;" width="166.33" height="228"/>
<rect x="115.33" y="164.67" style="fill:#4D4D4D;" width="20" height="182.67"/>
<rect x="376.67" y="164.67" style="fill:#333333;" width="20" height="182.67"/>
<g>
	<rect x="158" y="164.67" style="fill:#4D4D4D;" width="20" height="142.33"/>
	<rect x="236" y="164.67" style="fill:#4D4D4D;" width="20" height="142.33"/>
</g>
<g>
	<rect x="265" y="164.67" style="fill:#333333;" width="20" height="142.33"/>
	<rect x="293.33" y="164.67" style="fill:#333333;" width="20" height="142.33"/>
	<rect x="336.67" y="164.67" style="fill:#333333;" width="20" height="142.33"/>
</g>
<rect x="187.33" y="164.67" style="fill:#4D4D4D;" width="20" height="142.33"/>
<g>
</g>
<g>
</g>
<g>
</g>
<g>
</g>
<g>
</g>
<g>
</g>
<g>
</g>
<g>
</g>
<g>
</g>
<g>
</g>
<g>
</g>
<g>
</g>
<g>
</g>
<g>
</g>
<g>
</g>
</svg>
