<?xml version="1.0" encoding="iso-8859-1"?>
<!-- Generator: Adobe Illustrator 21.0.0, SVG Export Plug-In . SVG Version: 6.00 Build 0)  -->
<svg xmlns="http://www.w3.org/2000/svg" xmlns:xlink="http://www.w3.org/1999/xlink" version="1.1" id="Capa_1" x="0px" y="0px" viewBox="0 0 512 512" style="enable-background:new 0 0 512 512;" xml:space="preserve" width="512" height="512">
<g>
	<circle style="fill:#FF73AF;" cx="256" cy="256" r="256"/>
	<path style="fill:#FF318E;" d="M511.942,260.546l-147.459-147.46l-129.512,47.239l-12.678-13l-109.203,251.58l111.133,111.133   C234.636,511.327,245.239,512,256,512C395.865,512,509.515,399.831,511.942,260.546z"/>
	<g>
		<rect x="273.212" y="152.163" style="fill:#FF8700;" width="53.033" height="46.892"/>
		<polygon style="fill:#EEE5DD;" points="388.046,353.872 125.629,353.872 142.342,183.24 371.332,183.24   "/>
		<polygon style="fill:#D7D7D9;" points="388.046,353.872 256,353.872 256,183.24 371.332,183.24   "/>
		<rect x="246.236" y="206.429" style="fill:#00A6FF;" width="101.6" height="54.333"/>
		<g>
			<rect x="256.007" y="278.279" style="fill:#FF8700;" width="16.747" height="16.747"/>
			<rect x="288.664" y="278.279" style="fill:#FF8700;" width="16.747" height="16.747"/>
			<rect x="321.321" y="278.279" style="fill:#FF8700;" width="16.747" height="16.747"/>
			<rect x="256.007" y="306.656" style="fill:#FF8700;" width="16.747" height="16.747"/>
			<rect x="288.664" y="306.656" style="fill:#FF8700;" width="16.747" height="16.747"/>
			<rect x="321.321" y="306.656" style="fill:#FF8700;" width="16.747" height="16.747"/>
		</g>
		<rect x="161.032" y="147.325" style="fill:#FFD9A7;" width="61.261" height="100.297"/>
		<rect x="234.971" y="113.086" style="fill:#00A6FF;" width="129.512" height="55.824"/>
		<rect x="156.075" y="230.875" style="fill:#006EF5;" width="71.176" height="16.747"/>
		<rect x="256" y="206.429" style="fill:#006EF5;" width="91.836" height="54.333"/>
		<rect x="256" y="113.086" style="fill:#006EF5;" width="108.483" height="55.824"/>
		<rect x="113.091" y="337.125" style="fill:#9AFBFF;" width="285.819" height="61.78"/>
		<rect x="256" y="337.125" style="fill:#55F9FF;" width="142.909" height="61.78"/>
	</g>
</g>















</svg>
