<svg height="512pt" viewBox="0 0 512 512" width="512pt" xmlns="http://www.w3.org/2000/svg"><path d="m512 256c0 141.386719-114.613281 256-256 256s-256-114.613281-256-256 114.613281-256 256-256 256 114.613281 256 256zm0 0" fill="#ff7045"/><path d="m107.332031 333 177.386719 177.386719c127.863281-14.277344 227.28125-122.710938 227.28125-254.386719 0-13.863281-1.117188-27.460938-3.238281-40.726562l-104.09375-104.09375zm0 0" fill="#ea3f24"/><path d="m404.667969 111.179688h-297.335938v221.820312h93.484375l55.183594 83.355469 55.183594-83.355469h93.484375zm0 0" fill="#414952"/><path d="m256 111.179688v305.175781l55.183594-83.355469h93.484375v-221.820312zm0 0" fill="#23272b"/><g fill="#fff"><path d="m162.558594 268.121094h-14.839844v-55.917969c-5.417969 5.070313-11.808594 8.820313-19.164062 11.25v-13.464844c3.871093-1.265625 8.078124-3.671875 12.617187-7.207031 4.542969-3.539062 7.65625-7.664062 9.347656-12.382812h12.039063zm0 0"/><path d="m209.8125 190.398438c7.5 0 13.359375 2.675781 17.582031 8.027343 5.035157 6.335938 7.550781 16.84375 7.550781 31.519531 0 14.644532-2.535156 25.167969-7.601562 31.574219-4.191406 5.28125-10.03125 7.921875-17.53125 7.921875-7.53125 0-13.605469-2.894531-18.214844-8.6875-4.613281-5.789062-6.917968-16.109375-6.917968-30.964844 0-14.574218 2.535156-25.0625 7.601562-31.46875 4.191406-5.28125 10.035156-7.921874 17.53125-7.921874zm0 12.304687c-1.792969 0-3.398438.570313-4.804688 1.714844s-2.5 3.195312-3.273437 6.152343c-1.019531 3.835938-1.53125 10.292969-1.53125 19.375 0 9.082032.457031 15.324219 1.375 18.71875.914063 3.398438 2.066406 5.660157 3.457031 6.785157 1.390625 1.128906 2.984375 1.691406 4.777344 1.691406 1.796875 0 3.398438-.574219 4.804688-1.714844 1.40625-1.144531 2.5-3.195312 3.273437-6.152343 1.019531-3.800782 1.53125-10.242188 1.53125-19.324219s-.457031-15.320313-1.371094-18.71875c-.917969-3.398438-2.070312-5.667969-3.460937-6.8125s-2.980469-1.714844-4.777344-1.714844zm0 0"/><path d="m269.953125 190.398438c7.496094 0 13.359375 2.675781 17.582031 8.027343 5.035156 6.335938 7.550782 16.84375 7.550782 31.519531 0 14.644532-2.535157 25.167969-7.601563 31.574219-4.191406 5.28125-10.035156 7.921875-17.53125 7.921875-7.53125 0-13.605469-2.894531-18.214844-8.6875-4.613281-5.789062-6.917969-16.109375-6.917969-30.964844 0-14.574218 2.535157-25.0625 7.601563-31.46875 4.1875-5.28125 10.03125-7.921874 17.53125-7.921874zm0 12.304687c-1.796875 0-3.398437.570313-4.804687 1.714844-1.410157 1.144531-2.5 3.195312-3.273438 6.152343-1.019531 3.835938-1.53125 10.292969-1.53125 19.375 0 9.082032.457031 15.324219 1.375 18.71875.914062 3.398438 2.066406 5.660157 3.457031 6.785157 1.390625 1.128906 2.980469 1.691406 4.777344 1.691406 1.792969 0 3.394531-.574219 4.804687-1.714844 1.40625-1.144531 2.5-3.195312 3.273438-6.152343 1.019531-3.800782 1.53125-10.242188 1.53125-19.324219s-.457031-15.320313-1.375-18.71875c-.914062-3.398438-2.066406-5.667969-3.457031-6.8125s-2.984375-1.714844-4.777344-1.714844zm0 0"/></g><path d="m287.535156 198.425781c-4.222656-5.351562-10.085937-8.027343-17.582031-8.027343-5.5625 0-10.210937 1.457031-13.953125 4.363281v70.199219c3.898438 2.980468 8.546875 4.480468 13.953125 4.480468 7.496094 0 13.339844-2.640625 17.527344-7.921875 5.070312-6.40625 7.605469-16.929687 7.605469-31.574219 0-14.675781-2.519532-25.183593-7.550782-31.519531zm-9.503906 50.84375c-.773438 2.957031-1.867188 5.007813-3.273438 6.152344s-3.011718 1.714844-4.804687 1.714844c-1.796875 0-3.386719-.5625-4.777344-1.6875-1.390625-1.128907-2.542969-3.386719-3.457031-6.785157-.917969-3.398437-1.375-9.636718-1.375-18.71875 0-9.082031.511719-15.542968 1.53125-19.378906.773438-2.957031 1.863281-5.007812 3.273438-6.152344 1.40625-1.140624 3.007812-1.714843 4.804687-1.714843 1.792969 0 3.386719.574219 4.777344 1.714843 1.390625 1.144532 2.542969 3.417969 3.457031 6.8125.917969 3.398438 1.375 9.636719 1.375 18.71875 0 9.082032-.511719 15.523438-1.53125 19.324219zm0 0" fill="#e9edf5"/><path d="m322.371094 223.027344c-2.453125 0-4.757813-.429688-6.921875-1.296875-2.164063-.863281-4.054688-2.035157-5.675781-3.511719-1.621094-1.480469-2.902344-3.207031-3.839844-5.191406-.9375-1.980469-1.40625-4.125-1.40625-6.433594 0-2.234375.46875-4.363281 1.40625-6.378906.9375-2.019532 2.21875-3.75 3.839844-5.191406 1.621093-1.441407 3.515624-2.59375 5.675781-3.460938 2.164062-.863281 4.46875-1.296875 6.921875-1.296875 2.523437 0 4.863281.433594 7.027344 1.296875 2.164062.867188 4.054687 2.019531 5.675781 3.460938 1.625 1.441406 2.882812 3.171874 3.785156 5.191406.902344 2.015625 1.355469 4.144531 1.355469 6.378906 0 2.308594-.453125 4.453125-1.355469 6.433594-.898437 1.984375-2.160156 3.714844-3.785156 5.191406-1.621094 1.476562-3.511719 2.648438-5.675781 3.511719-2.164063.867187-4.503907 1.296875-7.027344 1.296875zm-11.679688 40.011718 30.492188-35.574218 28.117187-36.984375 6.59375 5.839843-29.84375 34.816407-28.765625 37.742187zm11.679688-47.253906c1.082031 0 2.070312-.253906 2.972656-.757812.898438-.503906 1.710938-1.171875 2.433594-2 .71875-.828125 1.277344-1.800782 1.675781-2.921875.394531-1.117188.59375-2.285157.59375-3.511719 0-2.523438-.757813-4.667969-2.269531-6.433594-1.515625-1.765625-3.316406-2.648437-5.40625-2.648437-1.082032 0-2.074219.25-2.976563.753906-.902343.507813-1.710937 1.171875-2.429687 2-.722656.832031-1.28125 1.785156-1.679688 2.867187-.394531 1.082032-.59375 2.234376-.59375 3.460938 0 1.296875.199219 2.503906.59375 3.621094.398438 1.121094.957032 2.09375 1.679688 2.921875.71875.828125 1.546875 1.476562 2.484375 1.945312s1.910156.703125 2.921875.703125zm41.738281 53.417969c-2.453125 0-4.757813-.433594-6.917969-1.300781-2.164062-.863282-4.039062-2.015625-5.625-3.457032-1.585937-1.441406-2.847656-3.15625-3.785156-5.136718-.9375-1.984375-1.40625-4.125-1.40625-6.433594s.46875-4.449219 1.40625-6.433594 2.199219-3.714844 3.785156-5.191406c1.585938-1.476562 3.460938-2.648438 5.625-3.515625 2.160156-.863281 4.46875-1.296875 6.917969-1.296875 2.523437 0 4.867187.433594 7.03125 1.296875 2.160156.867187 4.054687 2.039063 5.675781 3.515625s2.882813 3.207031 3.785156 5.191406c.898438 1.980469 1.351563 4.125 1.351563 6.433594s-.449219 4.449219-1.351563 6.433594c-.902343 1.984375-2.164062 3.695312-3.785156 5.136718-1.621094 1.441407-3.515625 2.59375-5.675781 3.457032-2.164063.867187-4.507813 1.300781-7.03125 1.300781zm0-7.246094c2.164063 0 4-.898437 5.515625-2.703125 1.515625-1.800781 2.269531-3.925781 2.269531-6.378906 0-2.523438-.773437-4.683594-2.324219-6.488281-1.550781-1.800781-3.371093-2.703125-5.460937-2.703125-1.082031 0-2.074219.253906-2.972656.757812-.902344.503906-1.714844 1.171875-2.433594 2-.722656.832032-1.28125 1.804688-1.675781 2.917969-.398438 1.121094-.59375 2.292969-.59375 3.515625 0 2.523438.753906 4.667969 2.269531 6.433594s3.316406 2.648437 5.40625 2.648437zm0 0" fill="#e9edf5"/></svg>