<?xml version="1.0" encoding="iso-8859-1"?>
<!-- Generator: Adobe Illustrator 21.0.0, SVG Export Plug-In . SVG Version: 6.00 Build 0)  -->
<svg xmlns="http://www.w3.org/2000/svg" xmlns:xlink="http://www.w3.org/1999/xlink" version="1.1" id="Capa_1" x="0px" y="0px" viewBox="0 0 512 512" style="enable-background:new 0 0 512 512;" xml:space="preserve" width="512" height="512">
<g>
	<g>
		<circle style="fill:#93D632;" cx="256" cy="256" r="256"/>
	</g>
	<path style="fill:#78B22A;" d="M512,256c0-0.149-0.005-0.297-0.006-0.445L360.059,103.62L85.573,135.118l58.938,58.937   l-40.376,17.836L224.373,332.13l-72.432,85.894l93.751,93.751C249.113,511.911,252.546,512,256,512   C397.385,512,512,397.385,512,256z"/>
	<g>
		<rect x="151.941" y="193.325" style="fill:#27488F;" width="208.119" height="224.699"/>
	</g>
	<g>
		<rect x="255.595" y="193.325" style="fill:#1B3B6B;" width="104.464" height="224.699"/>
	</g>
	<g>
		<rect x="151.941" y="202.167" style="fill:#FFFFFF;" width="208.119" height="50.411"/>
	</g>
	<g>
		<rect x="255.595" y="202.167" style="fill:#E9EDF5;" width="104.464" height="50.411"/>
	</g>
	<g>
		<rect x="104.134" y="158.844" style="fill:#2864F0;" width="303.731" height="53.048"/>
	</g>
	<g>
		<rect x="255.595" y="158.844" style="fill:#27488F;" width="152.27" height="53.048"/>
	</g>
	<g>
		<rect x="85.573" y="103.62" style="fill:#27488F;" width="274.486" height="31.498"/>
	</g>
	<g>
		<rect x="85.573" y="119" style="fill:#1B3B6B;" width="274.486" height="16.118"/>
	</g>
	<g>
		<rect x="285.866" y="103.62" style="fill:#FFFFFF;" width="74.194" height="31.498"/>
	</g>
	<g>
		<rect x="285.866" y="119" style="fill:#E9EDF5;" width="74.194" height="16.118"/>
	</g>
</g>















</svg>
