<svg height="512pt" viewBox="0 0 512 512" width="512pt" xmlns="http://www.w3.org/2000/svg"><path d="m512 256c0 141.386719-114.613281 256-256 256s-256-114.613281-256-256 114.613281-256 256-256 256 114.613281 256 256zm0 0" fill="#ffce00"/><path d="m280.285156 510.847656c120.152344-11.3125 216.136719-105.652344 229.980469-225.050781l-182.605469-182.605469-28.175781 58.347656-64.484375-64.480468-7.667969 75.875-132.078125 65.835937 52.59375 52.597657-52.59375 34.445312zm0 0" fill="#ffa300"/><path d="m344.390625 431.886719c-60.320313 0-109.390625-49.074219-109.390625-109.390625v-63.609375h30v63.609375c0 43.777344 35.613281 79.390625 79.390625 79.390625zm0 0" fill="#229327"/><path d="m250.046875 258.886719h-15.046875v63.609375c0 20.164062 5.488281 39.066406 15.046875 55.304687zm0 0" fill="#09a810"/><path d="m278.765625 301.5625 85.203125 33.707031c24.152344 9.554688 50.339844-8.242187 50.339844-34.21875v-12.347656c0-11.050781-6.117188-21.195313-15.894532-26.347656l-18.105468-9.550781 18.105468-9.546876c9.777344-5.15625 15.894532-15.296874 15.894532-26.347656v-12.347656c0-25.976562-26.1875-43.777344-50.339844-34.21875l-52.125 20.621094 20.621094-52.125c9.554687-24.15625-8.242188-50.339844-34.21875-50.339844h-12.347656c-11.050782 0-21.195313 6.117188-26.347657 15.890625l-9.550781 18.105469-9.546875-18.105469c-5.15625-9.773437-15.300781-15.890625-26.351563-15.890625h-12.34375c-25.976562 0-43.777343 26.183594-34.222656 50.339844l20.625 52.125-52.128906-20.621094c-24.152344-9.558594-50.339844 8.242188-50.339844 34.21875v12.347656c0 11.050782 6.121094 21.191406 15.894532 26.347656l18.105468 9.546876-18.105468 9.550781c-9.773438 5.152343-15.894532 15.296875-15.894532 26.347656v12.347656c0 25.976563 26.1875 43.777344 50.339844 34.21875l85.203125-33.707031c9.15625-3.625 18.917969-5.484375 28.765625-5.484375s19.609375 1.859375 28.765625 5.484375zm0 0" fill="#24b532"/><path d="m250.046875 122.410156-.046875.085938-9.546875-18.105469c-5.15625-9.773437-15.300781-15.890625-26.351563-15.890625h-12.34375c-25.976562 0-43.777343 26.183594-34.222656 50.339844l20.625 52.125-52.128906-20.621094c-24.152344-9.558594-50.339844 8.242188-50.339844 34.21875v12.347656c0 11.050782 6.121094 21.191406 15.894532 26.347656l18.105468 9.546876-18.105468 9.550781c-9.773438 5.152343-15.894532 15.296875-15.894532 26.347656v12.347656c0 25.976563 26.1875 43.777344 50.339844 34.21875l85.203125-33.707031c9.15625-3.625 18.917969-5.484375 28.765625-5.484375h.046875zm0 0" fill="#37d34a"/></svg>