<svg height="512pt" viewBox="0 0 512 512" width="512pt" xmlns="http://www.w3.org/2000/svg"><path d="m512 256c0 141.386719-114.613281 256-256 256s-256-114.613281-256-256 114.613281-256 256-256 256 114.613281 256 256zm0 0" fill="#ff3c62"/><path d="m512 256c0-22.1875-2.824219-43.71875-8.132812-64.25l-110.566407-110.566406h-36.515625c-14.53125-8.027344-31.238281-12.597656-49.011718-12.597656-51.164063 0-93.480469 37.835937-100.511719 87.050781-14.183594-7.523438-30.355469-11.792969-47.527344-11.792969-24.796875 0-47.515625 8.890625-65.148437 23.65625l-23.800782-7.640625v36.515625c-8.023437 14.53125-12.597656 31.238281-12.597656 49.011719 0 30.019531 13.03125 56.996093 33.742188 75.585937l189.644531 189.757813c129.375-12.832031 230.425781-121.976563 230.425781-254.730469zm0 0" fill="#c2001b"/><path d="m292.222656 246.320312c-56.082031 0-101.546875 45.464844-101.546875 101.546876 0 24.796874 8.894531 47.511718 23.65625 65.144531l-7.636719 23.804687h36.515626c14.53125 8.023438 31.234374 12.59375 49.011718 12.59375 56.082032 0 101.542969-45.460937 101.542969-101.542968 0-56.082032-45.460937-101.546876-101.542969-101.546876zm0 0" fill="#ffec97"/><path d="m393.765625 347.863281c0 56.085938-45.457031 101.550781-101.542969 101.550781v-203.089843c56.085938 0 101.542969 45.457031 101.542969 101.539062zm0 0" fill="#ffdb2d"/><path d="m312.820312 342.535156c3.324219.644532 6.378907 1.796875 9.167969 3.457032 2.789063 1.664062 5.171875 3.757812 7.15625 6.273437 1.984375 2.519531 3.511719 5.417969 4.585938 8.6875 1.070312 3.269531 1.609375 6.78125 1.609375 10.53125 0 5.042969-1.023438 9.570313-3.058594 13.59375-2.039062 4.019531-4.960938 7.449219-8.765625 10.292969-3.804687 2.839844-8.390625 5.039062-13.75 6.59375-5.363281 1.554687-11.367187 2.332031-18.011719 2.332031-16.300781 0-29.058594-4.773437-38.28125-14.3125l13.832032-18.335937c2.894531 3.003906 6.191406 5.28125 9.890624 6.835937 3.699219 1.554687 8.125 2.332031 13.269532 2.332031 12.117187 0 18.175781-4.449218 18.175781-13.347656 0-4.828125-1.796875-8.472656-5.386719-10.941406-3.597656-2.464844-9.25-3.699219-16.96875-3.699219h-4.824218v-18.492187h5.304687c6.003906 0 10.695313-1.234376 14.074219-3.699219 3.378906-2.464844 5.066406-5.734375 5.066406-9.8125 0-3.539063-1.234375-6.214844-3.699219-8.042969-2.46875-1.820312-5.738281-2.730469-9.8125-2.730469-4.398437 0-8.390625 1.042969-11.980469 3.132813-3.59375 2.089844-6.621093 5.066406-9.089843 8.925781l-16.242188-18.65625c1.714844-2.25 3.964844-4.34375 6.753907-6.269531 2.785156-1.929688 5.953124-3.566406 9.488281-4.90625 3.539062-1.339844 7.34375-2.386719 11.421875-3.136719 4.074218-.75 8.253906-1.125 12.542968-1.125 5.683594 0 10.882813.671875 15.601563 2.007813 4.71875 1.34375 8.738281 3.273437 12.0625 5.792968 3.324219 2.519532 5.898437 5.523438 7.722656 9.003906 1.820313 3.488282 2.730469 7.375 2.730469 11.660157 0 3.21875-.507812 6.273437-1.527344 9.167969-1.019531 2.898437-2.4375 5.523437-4.261718 7.882812-1.824219 2.359375-3.996094 4.316406-6.511719 5.871094-2.519531 1.550781-5.285157 2.597656-8.285157 3.132812zm0 0" fill="#57555c"/><path d="m333.734375 360.953125c-1.074219-3.273437-2.605469-6.164063-4.589844-8.683594-1.980469-2.519531-4.367187-4.609375-7.15625-6.28125-2.792969-1.660156-5.84375-2.804687-9.164062-3.449219 2.996093-.53125 5.757812-1.585937 8.277343-3.136718 2.519532-1.558594 4.691407-3.515625 6.519532-5.878906 1.820312-2.347657 3.238281-4.980469 4.257812-7.875 1.015625-2.890626 1.527344-5.953126 1.527344-9.171876 0-4.28125-.914062-8.171874-2.730469-11.652343-1.820312-3.488281-4.398437-6.496094-7.71875-9.011719-3.328125-2.519531-7.351562-4.453125-12.0625-5.785156-4.722656-1.34375-9.917969-2.015625-15.601562-2.015625-1.023438 0-2.050781.019531-3.070313.074219v21.964843h.167969c4.078125 0 7.34375.914063 9.816406 2.730469 2.464844 1.820312 3.695313 4.5 3.695313 8.042969 0 4.078125-1.6875 7.34375-5.066406 9.808593-2.277344 1.660157-5.140626 2.769532-8.613282 3.300782v19.183594c4.757813.484374 8.433594 1.625 11.03125 3.414062 3.589844 2.464844 5.382813 6.113281 5.382813 10.9375 0 8.460938-5.46875 12.902344-16.414063 13.3125v23.503906c6.457032-.027344 12.308594-.800781 17.542969-2.324218 5.363281-1.546876 9.945313-3.75 13.753906-6.585938 3.804688-2.847656 6.726563-6.277344 8.757813-10.300781 2.042968-4.019531 3.0625-8.546875 3.0625-13.585938 0-3.75-.542969-7.265625-1.605469-10.535156zm0 0" fill="#171719"/><path d="m261.277344 245.390625c0-56.082031-45.460938-101.546875-101.542969-101.546875-24.796875 0-47.515625 8.890625-65.148437 23.65625l-23.800782-7.636719v36.511719c-8.023437 14.53125-12.597656 31.238281-12.597656 49.015625 0 56.082031 45.464844 101.542969 101.546875 101.542969 56.078125 0 101.542969-45.460938 101.542969-101.542969zm0 0" fill="#54fbff"/><path d="m261.273438 245.390625c0 56.085937-45.457032 101.542969-101.539063 101.542969v-203.09375c56.082031 0 101.539063 45.46875 101.539063 101.550781zm0 0" fill="#00d6d6"/><path d="m119.664062 288.160156c0-5.039062.375-9.542968 1.125-13.511718.75-3.964844 2.035157-7.582032 3.859376-10.855469 1.824218-3.269531 4.289062-6.296875 7.402343-9.085938 3.105469-2.785156 7.019531-5.523437 11.738281-8.203125 5.039063-2.785156 9.25-5.09375 12.625-6.914062 3.378907-1.824219 6.058594-3.433594 8.042969-4.828125 1.984375-1.390625 3.402344-2.652344 4.261719-3.777344.855469-1.125 1.285156-2.4375 1.285156-3.941406 0-3-1.070312-5.414063-3.214844-7.238281-2.144531-1.820313-5.203124-2.734376-9.167968-2.734376-4.503906 0-8.417969 1.101563-11.738282 3.296876-3.328124 2.199218-6.542968 5.066406-9.652343 8.605468l-16.40625-18.976562c1.714843-1.929688 4.023437-3.804688 6.917969-5.628906 2.894531-1.820313 6.164062-3.460938 9.8125-4.90625 3.640624-1.449219 7.636718-2.601563 11.980468-3.457032 4.34375-.859375 8.871094-1.289062 13.589844-1.289062 11.582031 0 20.453125 2.519531 26.617188 7.558594 6.164062 5.042968 9.25 11.851562 9.25 20.425781 0 3.539062-.5625 6.703125-1.6875 9.492187-1.128907 2.789063-2.601563 5.28125-4.425782 7.476563-1.824218 2.199219-3.859375 4.128906-6.109375 5.792969-2.253906 1.660156-4.558593 3.191406-6.917969 4.582031-1.609374.964843-3.539062 2.089843-5.789062 3.378906-2.25 1.285156-4.476562 2.601563-6.675781 3.941406-2.199219 1.339844-4.234375 2.679688-6.109375 4.019531-1.878906 1.34375-3.296875 2.546876-4.261719 3.617188h43.746094v23.160156zm0 0" fill="#57555c"/><path d="m188.742188 202.277344c-6.167969-5.039063-15.039063-7.558594-26.621094-7.558594-.800782 0-1.59375.007812-2.386719.046875v22.402344c2.957031.277343 5.308594 1.15625 7.054687 2.640625 2.144532 1.820312 3.21875 4.234375 3.21875 7.238281 0 1.503906-.429687 2.808594-1.289062 3.9375-.859375 1.121094-2.277344 2.390625-4.265625 3.78125-1.285156.894531-2.851563 1.890625-4.71875 2.964844v24.042969c.175781-.128907.355469-.257813.539063-.390626 1.875-1.34375 3.910156-2.679687 6.113281-4.019531 2.191406-1.34375 4.421875-2.660156 6.671875-3.9375 2.257812-1.289062 4.1875-2.417969 5.792968-3.378906 2.359376-1.398437 4.664063-2.917969 6.914063-4.589844 2.257813-1.660156 4.292969-3.59375 6.109375-5.785156 1.828125-2.203125 3.304688-4.691406 4.425781-7.484375 1.128907-2.789062 1.6875-5.953125 1.6875-9.488281 0-8.574219-3.078125-15.382813-9.246093-20.421875zm-29.007813 62.726562v23.15625h40.027344v-23.15625zm0 0" fill="#171719"/><path d="m307.773438 271.675781c56.082031 0 101.542968-45.460937 101.542968-101.542969 0-24.796874-8.890625-47.515624-23.65625-65.148437l7.640625-23.800781h-36.515625c-14.53125-8.027344-31.238281-12.597656-49.011718-12.597656-56.082032 0-101.546876 45.464843-101.546876 101.546874 0 56.078126 45.464844 101.542969 101.546876 101.542969zm0 0" fill="#fff"/><path d="m409.316406 170.132812c0 55.683594-44.832031 100.90625-100.382812 101.523438v-203.0625c17.34375.195312 33.632812 4.738281 47.855468 12.585938h36.507813l-7.632813 23.800781c14.761719 17.632812 23.652344 40.355469 23.652344 65.152343zm0 0" fill="#fff5cb"/><path d="m344.617188 190.914062v23.160157h-69.480469v-23.160157h22.835937v-41.015624c-.964844 1.289062-2.464844 2.601562-4.503906 3.941406-2.035156 1.34375-4.316406 2.574218-6.832031 3.699218-2.523438 1.125-5.097657 2.039063-7.722657 2.734376-2.628906.699218-4.960937 1.046874-6.996093 1.046874v-23.804687c1.714843 0 3.941406-.589844 6.675781-1.769531 2.734375-1.179688 5.441406-2.597656 8.121094-4.261719 2.679687-1.660156 5.089844-3.347656 7.238281-5.066406 2.144531-1.714844 3.480469-3.109375 4.019531-4.183594h26.21875v68.675781h20.425782zm0 0" fill="#57555c"/><path d="m324.1875 190.910156v-68.679687h-15.253906v91.839843h35.679687v-23.160156zm0 0" fill="#171719"/></svg>