<svg height="512pt" viewBox="0 0 512 512" width="512pt" xmlns="http://www.w3.org/2000/svg"><path d="m512 256c0 141.386719-114.613281 256-256 256s-256-114.613281-256-256 114.613281-256 256-256 256 114.613281 256 256zm0 0" fill="#0095ff"/><path d="m389.3125 113.507812-26.082031 72.363282-45.914063-.367188-.367187-45.914062zm0 0" fill="#ffe470"/><path d="m316.949219 139.585938 46.28125 46.28125-196.6875 196.683593-46.28125-46.28125zm0 0" fill="#ffb64c"/><path d="m131.460938 325.074219 46.28125 46.28125-39.132813 39.132812-46.28125-46.28125zm0 0" fill="#f40000"/><path d="m512 256c0-6.945312-.285156-13.824219-.828125-20.632812l-121.859375-121.859376-250.703125 296.984376 100.96875 100.96875c5.433594.34375 10.902344.539062 16.421875.539062 141.386719 0 256-114.613281 256-256zm0 0" fill="#0050c3"/><path d="m389.3125 113.507812-26.082031 72.363282-45.914063-.367188zm0 0" fill="#ebb100"/><path d="m148.769531 307.765625 46.28125 46.28125-17.308593 17.308594-46.28125-46.28125zm0 0" fill="#7acbff"/><path d="m340.089844 162.726562 23.140625 23.140626-196.683594 196.683593-23.140625-23.140625zm0 0" fill="#e56705"/><path d="m171.910156 330.90625 23.140625 23.140625-17.308593 17.3125-23.140626-23.140625zm0 0" fill="#429dea"/><path d="m154.601562 348.21875 23.140626 23.140625-39.128907 39.128906-23.140625-23.140625zm0 0" fill="#9b000a"/><path d="m377.605469 145.988281 11.707031-32.480469-32.484375 11.707032zm0 0" fill="#635656"/><path d="m377.605469 145.988281 11.707031-32.480469-22.09375 22.09375zm0 0" fill="#372f2f"/></svg>